<svg xmlns="http://www.w3.org/2000/svg" data-name="Save the world" viewBox="0 0 64 64" id="industry-waste"><path fill="#4a80aa" d="M3.8,35c2.78.46,4.21,3.8,8.19,3.8,5,0,5-3.6,10-3.6s5,3.6,10,3.6,5-3.6,10-3.6,5,3.6,10.01,3.6c3.98,0,5.41-3.34,8.19-3.8H61V61H3V35Z"></path><circle cx="32" cy="18" r="15" fill="#898890"></circle><path fill="#235182" d="M45,43c-.115,0-.223.026-.336.034A5.989,5.989,0,0,0,43,40.537V18a11,11,0,0,0-22,0V40.1A5,5,0,1,0,24.973,49h9.564a5.987,5.987,0,0,0,6.276,1.72A5,5,0,1,0,45,43Z"></path><path fill="#2d2d30" d="M42.49,14.68a11,11,0,0,0-21.14.57v.01Z"></path><path fill="#2d2d30" d="M21.35,15.25v.01a3.212,3.212,0,0,0,1.36.26c1.86,0,1.86-1.04,3.72-1.04s1.85,1.04,3.71,1.04,1.85-1.04,3.71-1.04,1.86,1.04,3.71,1.04,1.86-1.04,3.72-1.04a3.271,3.271,0,0,1,1.21.2Z"></path><path fill="#365e7d" d="M3,46.22V61H61V47.78c-1.94-.75-2.88-2.06-6.15-2.06-4.57,0-4.57,2.56-9.15,2.56s-4.57-2.56-9.14-2.56-4.57,2.56-9.14,2.56-4.57-2.56-9.14-2.56-4.57,2.56-9.14,2.56C5.87,48.28,4.94,46.97,3,46.22Z"></path><path d="M61,34h-.81a.86.86,0,0,0-.16.01,8.14,8.14,0,0,0-3.56,1.87A6.977,6.977,0,0,1,52,37.8a6.6,6.6,0,0,1-4.42-1.61A9.293,9.293,0,0,0,44,34.42V28.55A15.855,15.855,0,0,0,48,18a16,16,0,0,0-32,0,15.855,15.855,0,0,0,4,10.55v5.86a9.186,9.186,0,0,0-3.6,1.78,6.6,6.6,0,0,1-4.41,1.61,6.977,6.977,0,0,1-4.47-1.92,8.14,8.14,0,0,0-3.56-1.87A.86.86,0,0,0,3.8,34H3a1,1,0,0,0-1,1V61a1,1,0,0,0,1,1H61a1,1,0,0,0,1-1V35A1,1,0,0,0,61,34ZM18,18a14,14,0,0,1,28,0,13.856,13.856,0,0,1-2,7.19V18a12,12,0,0,0-24,0v7.19A13.856,13.856,0,0,1,18,18Zm22.92-4.49a4.274,4.274,0,0,0-1.99.62,2.584,2.584,0,0,1-2.73,0,4.573,4.573,0,0,0-4.7,0,2.584,2.584,0,0,1-2.73,0,4.555,4.555,0,0,0-4.69,0,2.37,2.37,0,0,1-1.37.39h-.07a9.977,9.977,0,0,1,18.28-1.01ZM21.2,41.08a1,1,0,0,0,.8-.98V18a9.669,9.669,0,0,1,.13-1.53,5.221,5.221,0,0,0,.58.05,4.285,4.285,0,0,0,2.35-.65,2.584,2.584,0,0,1,2.73,0,4.555,4.555,0,0,0,4.69,0,2.6,2.6,0,0,1,2.74,0,4.555,4.555,0,0,0,4.69,0,2.37,2.37,0,0,1,1.37-.39,2.29,2.29,0,0,1,.39.03A9.773,9.773,0,0,1,42,18V40.54a1.022,1.022,0,0,0,.33.75,4.759,4.759,0,0,1,1.38,2.06,1,1,0,0,0,.95.68A2.136,2.136,0,0,0,45,44a3.969,3.969,0,0,1,3.77,2.66,6.854,6.854,0,0,1-3.07.62,7.127,7.127,0,0,1-4.08-1.15,9.119,9.119,0,0,0-5.06-1.41,9.119,9.119,0,0,0-5.06,1.41,7.127,7.127,0,0,1-4.08,1.15,7.127,7.127,0,0,1-4.08-1.15,9.119,9.119,0,0,0-5.06-1.41c-.09,0-.17.01-.26.01A4.008,4.008,0,0,1,21.2,41.08ZM4,36.07a7.559,7.559,0,0,1,2.31,1.4,8.9,8.9,0,0,0,5.68,2.33,8.538,8.538,0,0,0,5.58-1.99A7.975,7.975,0,0,1,20,36.47v2.87a6.03,6.03,0,0,0-4,5.62,10.059,10.059,0,0,0-2.78,1.17,7.127,7.127,0,0,1-4.08,1.15,7.1,7.1,0,0,1-4.08-1.16c-.34-.18-.69-.37-1.06-.54ZM60,60H4V47.83a.3.3,0,0,1,.08.04,9.119,9.119,0,0,0,5.06,1.41,9.119,9.119,0,0,0,5.06-1.41,7.127,7.127,0,0,1,4.08-1.15,7.127,7.127,0,0,1,4.08,1.15,9.119,9.119,0,0,0,5.06,1.41,9.119,9.119,0,0,0,5.06-1.41,7.127,7.127,0,0,1,4.08-1.15,7.127,7.127,0,0,1,4.08,1.15,9.8,9.8,0,0,0,10.13,0,7.819,7.819,0,0,1,8.18.01c.33.18.67.38,1.05.56Zm0-13.83a.3.3,0,0,1-.08-.04,9.158,9.158,0,0,0-5.07-1.41,8.783,8.783,0,0,0-4.32,1.01,5.934,5.934,0,0,0-5.21-3.72A6.688,6.688,0,0,0,44,40.11V36.48a8.086,8.086,0,0,1,2.41,1.33A8.525,8.525,0,0,0,52,39.8a8.9,8.9,0,0,0,5.68-2.33A7.716,7.716,0,0,1,60,36.07Z"></path><rect width="2" height="4" x="26" y="21"></rect><rect width="2" height="4" x="30" y="30"></rect><rect width="2" height="4" x="35" y="21"></rect><rect width="7" height="2" x="10" y="56"></rect><rect width="7" height="2" x="21" y="53"></rect><rect width="5" height="2" x="36" y="50"></rect><rect width="5" height="2" x="46" y="55"></rect><rect width="4" height="2" x="53" y="50"></rect></svg>