<svg xmlns="http://www.w3.org/2000/svg" viewBox="0 0 64 64" id="water-dam"><g data-name="dam-warter"><rect width="2" height="15" x="17" y="17"></rect><rect width="2" height="2" x="17" y="35"></rect><rect width="2" height="3" x="17" y="40"></rect><rect width="2" height="5" x="22" y="23"></rect><rect width="2" height="15" x="22" y="31"></rect><rect width="2" height="2" x="27" y="33"></rect><rect width="2" height="3" x="27" y="38"></rect><rect width="2" height="7" x="38" y="18"></rect><rect width="2" height="2" x="38" y="28"></rect><rect width="2" height="7" x="38" y="33"></rect><rect width="2" height="15" x="43" y="21"></rect><rect width="2" height="3" x="43" y="39"></rect><rect width="2" height="2" x="47" y="19"></rect><rect width="2" height="23" x="47" y="23"></rect><rect width="2" height="2" x="7" y="55"></rect><rect width="8" height="2" x="12" y="55"></rect><rect width="2" height="2" x="23" y="57"></rect><rect width="12" height="2" x="27" y="57"></rect><rect width="7" height="2" x="42" y="55"></rect><rect width="6" height="2" x="52" y="57"></rect><path d="M62,52h-.058L59,2.94A1,1,0,0,0,58,2H52a1,1,0,0,0-1,1V4H13V3a1,1,0,0,0-1-1H6a1,1,0,0,0-1,.94L2,53v8a1,1,0,0,0,1,1H61a1,1,0,0,0,1-1ZM57.059,4,59.94,52H53V4ZM51,9v4H36V9ZM31,27h2v2H31Zm3-2H30V9h4ZM28,13H13V9H28Zm0,2V26a1,1,0,0,0,1,1v3a1,1,0,0,0,1,1h4a1,1,0,0,0,1-1V27a1,1,0,0,0,1-1V15H51V47.327a4.216,4.216,0,0,0-1.627.892,1.927,1.927,0,0,1-2.759,0,3.895,3.895,0,0,0-5.252,0,1.916,1.916,0,0,1-2.749,0,3.888,3.888,0,0,0-5.248,0,1.916,1.916,0,0,1-2.749,0,3.889,3.889,0,0,0-5.249,0,1.916,1.916,0,0,1-2.749,0,3.889,3.889,0,0,0-5.249,0,1.914,1.914,0,0,1-2.746,0A4.21,4.21,0,0,0,13,47.327V15ZM13.373,49.781a3.885,3.885,0,0,0,5.246,0,1.916,1.916,0,0,1,2.749,0,3.889,3.889,0,0,0,5.249,0,1.916,1.916,0,0,1,2.749,0,3.889,3.889,0,0,0,5.249,0,1.915,1.915,0,0,1,2.748,0,3.889,3.889,0,0,0,5.249,0,1.922,1.922,0,0,1,2.754,0,3.9,3.9,0,0,0,5.255,0c.138-.109.259-.2.379-.282V52H13V49.5C13.118,49.582,13.238,49.672,13.373,49.781ZM51,6V7H13V6ZM6.941,4H11V52H4.062ZM60,60H4l0-6H60Z"></path></g></svg>